<svg version="1.1" id="Layer_1" xmlns="http://www.w3.org/2000/svg" xmlns:xlink="http://www.w3.org/1999/xlink" x="0px" y="0px"
	 width="100%" viewBox="0 0 613 800" enable-background="new 0 0 613 800" xml:space="preserve">
<path fill="#FEFEFE" opacity="1.000000" stroke="none" 
	d="
M534.000000,1.000010 
	C560.661987,1.000000 587.323914,1.000000 613.989380,1.000000 
	C613.992920,267.614929 613.992920,534.229858 613.992920,800.922363 
	C409.754456,800.922363 205.508896,800.922363 1.131660,800.922363 
	C1.131660,534.333374 1.131660,267.666687 1.131660,1.000000 
	C40.421906,1.000000 79.748314,1.000000 119.572388,1.349217 
	C121.678627,3.280067 123.058159,5.239494 124.935585,6.377655 
	C132.884445,11.196538 141.972916,11.818731 150.832260,11.880628 
	C190.388840,12.156991 229.948532,11.975995 269.506775,12.079093 
	C271.333496,12.083854 273.157227,13.234407 274.673279,14.050142 
	C260.370697,18.768805 249.082565,37.730453 251.881897,54.872341 
	C255.292709,75.758575 275.191437,89.815437 296.751221,85.712143 
	C316.454529,81.962189 330.016083,60.869560 325.603882,41.150417 
	C322.544250,27.476192 313.657898,19.005436 301.971130,13.038152 
	C304.666748,12.578070 306.947327,12.038670 309.228271,12.037058 
	C373.392212,11.991715 437.556946,12.147323 501.719208,11.817521 
	C509.854889,11.775702 518.102966,9.711973 526.042664,7.614650 
	C529.066528,6.815864 531.368835,3.285475 534.000000,1.000010 
M174.378311,500.490845 
	C175.400299,501.045349 176.446793,501.559326 177.440689,502.160248 
	C198.890427,515.129456 221.737411,518.269592 245.956604,511.991455 
	C259.757660,508.413910 271.644135,501.349945 282.270142,491.986267 
	C283.409454,492.784485 284.392761,493.393768 285.288330,494.112366 
	C319.090271,521.235840 362.359589,521.457031 396.423645,494.713226 
	C397.448090,493.908905 398.804626,493.527496 400.430237,493.453522 
	C401.049957,493.459167 401.784882,493.689117 402.272858,493.438354 
	C429.350464,479.525665 446.226959,457.768066 450.771393,427.577484 
	C452.348206,417.102020 451.022491,406.189667 451.022491,395.347351 
	C454.851013,393.712799 459.013031,392.051178 463.079468,390.181641 
	C498.360138,373.960876 519.293396,331.959442 510.963654,294.042297 
	C510.725281,292.957123 509.684631,292.048248 508.661926,290.162384 
	C508.727539,289.166504 508.800812,288.171051 508.857697,287.174683 
	C510.629608,256.127258 499.840607,230.434967 475.414001,211.066925 
	C468.357086,205.471436 460.043610,201.460709 452.176086,196.643799 
	C465.573059,140.908234 427.199280,100.698921 396.291626,92.356255 
	C424.898010,129.525848 432.897156,170.542877 419.997223,215.158478 
	C420.540070,215.629944 420.646149,215.793930 420.787842,215.834991 
	C460.249664,227.267838 489.056854,251.194855 506.370331,288.671906 
	C506.822571,289.650909 508.154968,290.223328 509.235260,291.773376 
	C509.115784,292.427673 509.089630,293.116302 508.863495,293.731384 
	C495.286774,330.664001 470.499420,356.956024 434.154114,372.179596 
	C428.864197,374.395386 423.355682,376.089233 418.171234,377.944824 
	C418.052551,378.538574 417.964905,378.710907 417.998016,378.855621 
	C418.182556,379.662750 418.376282,380.468933 418.602966,381.265137 
	C428.772552,416.980927 424.607239,451.056915 406.734589,483.491211 
	C405.305084,486.085419 402.918152,488.152069 400.203613,490.107849 
	C399.052734,490.252258 397.890717,490.337189 396.752563,490.549713 
	C364.285889,496.611633 333.778870,491.183533 305.545776,474.206482 
	C296.775238,468.932617 288.863617,462.230438 280.247559,455.955505 
	C277.042328,459.175385 273.720642,462.908447 269.999023,466.187683 
	C242.550827,490.373077 210.505096,501.285950 173.622406,498.563263 
	C145.447357,462.096191 138.727798,421.586700 151.385406,377.466217 
	C110.712975,365.627228 82.046326,340.455872 64.206047,302.584625 
	C61.150208,346.404510 79.711739,377.209229 119.362526,395.462708 
	C119.221481,396.543304 119.174072,397.538147 118.954811,398.493561 
	C113.815956,420.885376 116.774055,442.201202 128.268936,462.034760 
	C138.786392,480.181824 153.799683,493.271484 174.378311,500.490845 
M140.547791,222.918625 
	C146.170868,221.027679 151.793945,219.136734 157.587662,217.188416 
	C146.371597,178.034058 152.377365,141.542038 174.700714,107.193069 
	C167.804565,107.960434 156.253006,115.677834 147.854691,124.893463 
	C128.401520,146.239807 121.682571,171.400146 126.252678,199.907120 
	C104.940498,206.611633 88.611557,219.151855 76.881523,237.853531 
	C64.350967,257.831543 62.127842,287.267090 67.172966,298.291962 
	C70.920868,290.807861 74.310211,282.821259 78.724594,275.448364 
	C93.211105,251.252975 113.808304,234.002457 140.547791,222.918625 
M185.075317,104.445511 
	C226.629776,97.148392 262.896179,108.481712 294.435303,135.866776 
	C321.478394,104.604248 355.584747,89.705727 397.236206,89.873466 
	C383.708344,80.997696 369.153168,76.404808 352.471588,76.155334 
	C328.911285,75.802994 308.797424,84.595268 291.803894,100.459030 
	C250.872116,67.252853 199.837173,79.763443 176.673767,106.095474 
	C179.389450,105.599411 181.835266,105.152641 185.075317,104.445511 
M527.637024,446.105164 
	C528.138489,445.441406 528.666443,444.795837 529.137634,444.111206 
	C538.815613,430.048889 538.419617,411.311157 528.168945,397.937012 
	C517.943115,384.595276 500.298431,379.465668 483.788269,385.034790 
	C468.686615,390.128784 457.864502,405.820160 458.050079,422.353577 
	C458.229797,438.369263 468.412872,452.904114 483.382172,458.511566 
	C498.732666,464.261810 515.655457,459.687164 527.637024,446.105164 
M516.327637,206.995636 
	C518.008118,205.936844 519.733459,204.942596 521.361877,203.809052 
	C535.020386,194.301193 540.937439,176.377518 535.719727,160.406631 
	C530.370789,144.034134 515.032898,132.953430 498.303345,133.375595 
	C482.793396,133.766983 468.201324,143.782959 462.917786,157.664108 
	C457.059479,173.055527 460.621674,189.747589 472.030823,200.366348 
	C483.967682,211.476227 500.614166,214.112411 516.327637,206.995636 
M322.141693,547.335815 
	C324.221039,522.344055 300.398895,502.337006 276.541992,506.992249 
	C256.515137,510.900116 241.709854,531.445801 245.533783,551.344482 
	C249.217499,570.513611 266.243469,584.579224 284.789856,583.775024 
	C304.614349,582.915466 319.891388,568.374329 322.141693,547.335815 
M40.175110,399.795135 
	C35.539124,407.836334 33.535130,416.391144 34.888100,425.679932 
	C37.116837,440.981232 49.168926,454.109253 64.234116,457.510590 
	C79.786369,461.021912 95.968300,454.535004 105.195450,441.090149 
	C113.578285,428.875610 113.202477,410.883545 104.700363,398.240601 
	C90.624084,377.308655 56.700584,374.338135 40.175110,399.795135 
M70.098793,209.683395 
	C93.744453,215.892975 116.313606,201.524719 118.932716,178.594131 
	C121.274101,158.094940 108.123245,140.291977 87.749237,136.379562 
	C69.176910,132.813126 49.960232,144.960419 45.005844,163.398605 
	C39.701263,183.140076 49.952526,202.493744 70.098793,209.683395 
M83.460808,685.702454 
	C83.973808,683.285767 83.865608,680.431213 85.173988,678.575256 
	C86.489578,676.709045 89.402809,674.601807 91.268166,674.885681 
	C93.035637,675.154602 94.618874,678.243591 95.762192,680.372192 
	C96.397957,681.555908 96.009827,683.310974 96.014153,684.808716 
	C96.031281,690.751099 96.021194,696.693420 96.021194,702.619507 
	C100.591995,702.619507 104.627914,702.619507 108.859756,702.619507 
	C108.859756,696.585205 108.810341,690.934631 108.872276,685.285278 
	C108.949509,678.241333 111.436821,674.394226 115.808563,674.362183 
	C119.784966,674.333130 121.475197,677.362854 121.531189,684.814087 
	C121.576012,690.779053 121.540237,696.744568 121.540237,702.770020 
	C125.968636,702.770020 129.901718,702.770020 134.051117,702.770020 
	C134.051117,694.253845 134.463577,685.943481 133.940399,677.692322 
	C133.364670,668.612549 127.278313,663.303650 118.255913,664.177002 
	C113.894669,664.599182 109.720474,666.953857 104.831436,668.652466 
	C97.651543,662.410706 93.463226,662.085754 83.994583,667.954102 
	C83.594475,666.599792 83.211754,665.304443 82.895378,664.233582 
	C78.717186,664.233582 74.933022,664.233582 71.036652,664.233582 
	C71.036652,677.194946 71.036652,689.916321 71.036652,702.781006 
	C75.212814,702.781006 79.128448,702.781006 83.459435,702.781006 
	C83.459435,697.259277 83.459435,691.956238 83.460808,685.702454 
M272.206818,686.898804 
	C272.912415,684.754578 273.617981,682.610291 274.691071,679.349182 
	C276.024689,683.702698 277.055634,687.000610 278.045288,690.310852 
	C282.003632,703.550964 281.998993,703.554688 295.956085,702.909851 
	C296.242767,702.896667 296.518524,702.646790 297.027191,702.394165 
	C301.308014,689.853577 305.643646,677.152466 310.045319,664.257812 
	C305.035767,664.257812 300.460449,664.257812 295.757538,664.257812 
	C293.303131,672.102173 290.911591,679.745605 288.520050,687.389038 
	C288.189789,687.379700 287.859558,687.370361 287.529297,687.361023 
	C284.908905,679.610657 282.288544,671.860291 279.719330,664.261353 
	C276.049530,664.261353 272.774597,664.261353 269.509033,664.261353 
	C266.857635,672.219299 264.287750,679.932617 261.298981,688.903137 
	C258.453369,679.742004 256.015015,671.892151 253.653595,664.289856 
	C248.745895,664.289856 244.356018,664.289856 239.472549,664.289856 
	C243.869904,677.413879 248.125854,690.115845 252.347061,702.714111 
	C257.612091,702.714111 262.541412,702.714111 267.476440,702.714111 
	C269.044922,697.521362 270.532837,692.595459 272.206818,686.898804 
M159.877472,666.392090 
	C158.947876,666.924194 158.018280,667.456360 157.009918,668.033569 
	C155.869415,663.518127 152.205490,662.677124 143.974518,664.685608 
	C143.974518,684.313782 143.974518,703.925049 143.974518,723.769836 
	C148.097961,723.769836 152.031158,723.769836 156.654541,723.769836 
	C156.654541,715.903137 156.654541,708.092773 156.654541,699.909546 
	C166.988922,706.028931 176.632233,705.177185 183.151642,698.037598 
	C189.519165,691.064331 190.257797,679.963806 184.876068,672.122864 
	C179.441971,664.205627 170.346863,661.910034 159.877472,666.392090 
M60.191559,692.691772 
	C58.855053,692.152466 57.531906,691.190491 56.179722,691.147766 
	C50.601318,690.971436 45.014103,691.073914 39.531120,691.073914 
	C39.531120,686.877563 39.531120,683.454895 39.531120,679.516724 
	C46.246937,679.516724 52.656342,679.516724 59.168648,679.516724 
	C59.168648,675.403992 59.168648,671.817749 59.168648,667.831848 
	C52.452869,667.831848 46.015644,667.831848 39.531136,667.831848 
	C39.531136,664.024719 39.531136,660.628540 39.531136,656.716187 
	C46.570675,656.716187 53.310055,656.716187 59.977352,656.716187 
	C59.977352,652.587708 59.977352,648.983276 59.977352,645.207520 
	C48.816624,645.207520 37.897247,645.207520 26.795074,645.207520 
	C26.795074,664.513672 26.795074,683.609009 26.795074,702.764526 
	C37.980877,702.764526 48.915005,702.764526 60.214920,702.764526 
	C60.214920,699.571045 60.214920,696.610657 60.191559,692.691772 
M351.934509,688.995972 
	C349.769348,688.994751 347.556793,688.716003 345.453278,689.075500 
	C343.600037,689.392273 341.337616,689.948975 340.192627,691.234253 
	C337.709229,694.021729 334.968842,695.410706 331.427460,694.373169 
	C327.544128,693.235474 325.475769,690.533936 325.560425,685.818298 
	C335.364441,685.818298 344.937469,685.818298 354.463959,685.818298 
	C355.168610,674.154541 349.812317,666.989929 338.874176,664.431702 
	C326.779144,661.602905 314.420990,668.396179 312.031555,679.187195 
	C309.311737,691.470276 315.823059,701.182617 328.483276,703.726746 
	C339.551758,705.950989 350.142456,700.867615 353.164307,691.778687 
	C353.425354,690.993469 352.928101,689.956177 351.934509,688.995972 
M236.795151,690.991760 
	C237.083984,689.866455 237.452881,688.754883 237.649307,687.613647 
	C239.690552,675.753662 231.407455,665.266113 219.049973,664.031799 
	C205.525345,662.680908 194.889709,671.078857 194.535645,683.388428 
	C194.241623,693.610229 199.845703,700.733093 210.264053,703.379578 
	C221.376999,706.202576 231.511429,701.697266 236.795151,690.991760 
M408.683929,663.768616 
	C404.979095,658.535767 401.274231,653.302856 396.971680,647.225708 
	C396.971680,667.101562 396.971680,685.861694 396.971680,704.715698 
	C398.750214,704.715698 400.475342,704.715698 402.883423,704.715698 
	C402.883423,691.989258 402.883423,679.555786 402.883423,665.830383 
	C413.218628,680.474548 422.700714,693.909912 432.748474,708.146851 
	C432.748474,688.273010 432.748474,669.695007 432.748474,650.722107 
	C430.775818,650.810364 429.074127,650.886475 426.945923,650.981689 
	C426.945923,663.893860 426.945923,676.227051 426.945923,689.710449 
	C420.519501,680.603882 414.793091,672.489319 408.683929,663.768616 
M466.469238,699.925110 
	C461.352112,699.925110 456.235016,699.925110 450.994568,699.925110 
	C450.994568,693.319641 450.994568,687.242676 450.994568,680.592957 
	C459.632599,680.592957 468.032288,680.592957 476.761017,680.592957 
	C476.656952,678.426575 476.581390,676.853882 476.483337,674.812744 
	C467.707947,674.812744 459.290771,674.812744 450.943542,674.812744 
	C450.943542,668.372620 450.943542,662.423096 450.943542,656.041565 
	C459.717957,656.041565 468.296448,656.041565 476.927246,656.041565 
	C476.927246,654.037292 476.927246,652.487915 476.927246,650.923462 
	C466.148804,650.923462 455.697876,650.923462 445.231018,650.923462 
	C445.231018,669.021301 445.231018,686.905579 445.231018,704.809082 
	C456.010498,704.809082 466.439423,704.809082 477.039307,704.809082 
	C477.039307,703.165527 477.039307,701.735535 477.039307,699.925110 
	C473.706085,699.925110 470.579102,699.925110 466.469238,699.925110 
M524.928650,658.475281 
	C526.551636,656.089539 528.174561,653.703796 529.861877,651.223511 
	C525.102478,649.715027 522.418823,651.327820 520.102539,655.136658 
	C516.337219,661.328247 512.019592,667.183838 507.713257,673.507019 
	C503.239807,666.906311 498.822144,661.038513 495.148315,654.737000 
	C492.724426,650.579529 489.755035,650.157043 485.370544,651.126404 
	C491.787537,660.294556 497.946075,669.093506 504.087585,677.868103 
	C497.748444,686.946472 491.658508,695.668030 485.436951,704.578003 
	C490.340149,705.861694 492.988220,704.386597 495.209503,700.734619 
	C498.983246,694.530273 503.280029,688.644104 507.724915,682.080933 
	C512.231445,688.709961 516.678955,694.707947 520.504761,701.079285 
	C522.888306,705.048706 525.665955,705.879883 529.960571,704.377380 
	C523.652649,695.352295 517.490173,686.535217 511.368195,677.776001 
	C515.907837,671.294556 520.199036,665.167847 524.928650,658.475281 
M479.500000,635.879395 
	C451.239594,635.879395 422.979218,635.879395 394.811340,635.879395 
	C392.938873,641.493164 396.878387,640.228271 399.299866,640.230225 
	C453.567535,640.274902 507.835266,640.264404 562.102966,640.264404 
	C563.702942,640.264404 565.302856,640.264465 567.252014,640.264465 
	C567.035156,638.392395 566.895630,637.188232 566.744019,635.879395 
	C537.749390,635.879395 509.124695,635.879395 479.500000,635.879395 
M522.500061,713.712952 
	C481.381409,713.712952 440.262726,713.710571 399.144073,713.716125 
	C394.270660,713.716736 394.270660,713.736694 394.840881,717.822754 
	C452.182861,717.822754 509.533722,717.822754 566.792236,717.822754 
	C567.981201,714.258850 566.412231,713.641846 563.453125,713.665955 
	C550.136169,713.774597 536.817932,713.713013 522.500061,713.712952 
M378.249390,666.823425 
	C373.729218,669.970581 377.663849,663.183289 374.683228,664.368774 
	C371.138184,664.368774 367.237122,664.368774 363.348145,664.368774 
	C363.348145,677.328430 363.348145,689.908142 363.348145,702.711853 
	C367.598694,702.711853 371.634491,702.711853 375.985443,702.711853 
	C375.985443,697.459656 375.974701,692.499695 375.991455,687.539917 
	C375.997101,685.878540 375.630066,684.038086 376.214081,682.595642 
	C377.237610,680.067810 378.320709,676.697998 380.374298,675.670593 
	C382.995361,674.359314 386.604187,675.022400 389.623413,674.844177 
	C389.623413,671.602356 389.623413,667.868408 389.623413,662.950073 
	C385.586365,664.210876 382.220001,665.262207 378.249390,666.823425 
M552.489990,689.494751 
	C552.489990,678.429199 552.489990,667.363647 552.489990,655.856262 
	C557.165161,655.856262 561.257935,655.856262 565.413147,655.856262 
	C565.413147,653.842896 565.413147,652.285583 565.413147,650.586914 
	C554.716370,650.586914 544.340881,650.586914 533.808777,650.586914 
	C533.808777,652.451416 533.808777,654.024353 533.808777,655.986206 
	C538.197632,655.986206 542.300476,655.986206 546.707275,655.986206 
	C546.707275,672.460571 546.707275,688.548279 546.707275,704.713867 
	C548.748047,704.713867 550.475586,704.713867 552.128845,704.713867 
	C552.287720,704.092896 552.437927,703.775391 552.440002,703.457031 
	C552.468628,699.135376 552.476685,694.813599 552.489990,689.494751 
M80.231026,766.471680 
	C80.230995,777.623169 80.230995,777.623169 84.004745,777.670837 
	C84.004745,773.229797 84.004745,768.785522 84.004745,762.742737 
	C86.702751,764.416504 88.763481,765.172424 90.063675,766.614258 
	C92.501785,769.317749 94.304199,772.596680 96.757240,775.283691 
	C98.138206,776.796265 100.290512,777.604675 102.095322,778.730286 
	C102.413826,778.290161 102.732330,777.849976 103.050827,777.409851 
	C99.741508,773.096191 96.432182,768.782532 93.090012,764.426086 
	C94.063499,764.023438 94.832741,763.714966 95.594376,763.388733 
	C101.046631,761.053345 103.701614,756.846924 102.934975,751.766296 
	C102.149536,746.561035 97.955238,742.995300 92.048508,742.755920 
	C88.256920,742.602234 84.454041,742.727051 80.231033,742.727051 
	C80.231033,750.593384 80.231033,758.037537 80.231026,766.471680 
M309.511383,755.014526 
	C309.407654,755.905151 309.303955,756.795776 309.179291,757.866089 
	C301.927429,753.379333 296.534393,753.746826 292.453888,758.745361 
	C288.631866,763.427246 288.776581,770.273926 292.793274,774.802612 
	C296.924164,779.460022 302.236359,779.632446 308.160461,775.772156 
	C309.759216,776.716980 311.050598,777.480225 312.734467,778.475342 
	C312.734467,764.640625 312.734467,751.888672 312.734467,739.136719 
	C312.312042,738.935120 311.889618,738.733582 311.467194,738.532043 
	C310.816162,739.559448 309.659332,740.560242 309.603485,741.619080 
	C309.384460,745.771851 309.512695,749.942932 309.511383,755.014526 
M445.093811,768.759766 
	C445.780945,763.296021 444.151550,758.714966 439.250458,755.995178 
	C434.698334,753.469055 430.261047,754.480713 426.729492,757.517090 
	C425.293701,756.534973 423.995514,755.646973 422.119202,754.363525 
	C422.119202,767.309387 422.119202,779.082886 422.119202,790.856384 
	C422.647095,790.965759 423.174988,791.075134 423.702911,791.184448 
	C428.090332,786.819946 423.630737,780.260132 426.094025,775.378723 
	C434.753174,780.954346 441.195618,778.917969 445.093811,768.759766 
M140.540909,770.862061 
	C143.078003,776.374268 147.398132,778.816528 153.391205,778.110535 
	C157.562241,777.619080 160.601059,775.557983 162.521164,770.226196 
	C158.308334,772.049866 155.196198,774.257568 151.888229,774.606018 
	C147.963730,775.019348 144.669861,772.893860 143.832947,767.883057 
	C150.635864,767.883057 157.084625,767.883057 164.394241,767.883057 
	C163.259186,764.720398 162.767761,761.866821 161.321579,759.630676 
	C158.314545,754.981018 152.224838,753.363281 147.157394,755.326172 
	C141.572556,757.489502 139.133652,762.720764 140.540909,770.862061 
M255.870682,766.622070 
	C255.603897,765.155273 255.528885,763.620300 255.036438,762.233643 
	C253.107498,756.801941 247.561401,753.872681 241.336990,754.860046 
	C236.300018,755.659058 232.210114,760.312073 231.876022,765.623596 
	C231.518417,771.309204 235.425293,776.785950 240.701492,777.995300 
	C246.770493,779.386353 251.399582,777.154968 254.682205,770.323181 
	C250.495804,772.074524 247.296707,774.283630 243.922882,774.594116 
	C240.085266,774.947388 236.753189,772.854431 235.943649,767.496948 
	C242.866684,767.496948 249.316223,767.496948 255.870682,766.622070 
M490.361572,778.264404 
	C495.042938,777.980164 498.482635,775.949524 500.971588,770.143982 
	C496.614777,772.029785 493.519623,774.193909 490.213531,774.587769 
	C486.245514,775.060486 482.991394,772.913452 481.857452,767.815552 
	C488.773773,767.815552 495.297302,767.815552 501.832062,767.815552 
	C501.199341,759.030273 496.801788,754.557312 489.443024,754.694397 
	C483.212616,754.810486 478.316833,759.398743 477.884735,765.526611 
	C477.397858,772.431396 481.950043,777.376831 490.361572,778.264404 
M265.184174,756.559814 
	C259.421448,762.196533 258.490051,768.326111 262.549225,773.900024 
	C266.470459,779.284485 271.947662,779.740723 278.640106,775.917603 
	C280.417908,776.871887 281.638367,777.526978 283.292084,778.414612 
	C283.292084,770.009399 283.292084,762.716248 283.292084,753.994995 
	C281.309235,755.690369 280.146729,756.684265 278.968567,757.691589 
	C275.077301,754.309875 270.620239,753.671082 265.184174,756.559814 
M383.170349,758.982849 
	C388.618225,757.655090 390.588531,759.062805 390.731171,764.605835 
	C390.842346,768.927734 390.753418,773.254639 390.753418,777.579346 
	C391.170349,777.860901 391.587280,778.142395 392.004211,778.423950 
	C392.751221,777.436340 394.054596,776.495544 394.142334,775.452515 
	C394.420654,772.143677 394.174988,768.794678 394.263428,765.464783 
	C394.369324,761.477173 394.234375,757.074463 389.943329,755.769897 
	C386.705353,754.785400 382.864258,755.784668 379.291565,755.901001 
	C379.377960,756.209717 379.464386,756.518372 379.550781,756.827087 
	C378.211945,756.165833 376.873108,755.504578 375.109009,754.633301 
	C375.109009,762.945984 375.109009,770.384277 375.109009,777.822510 
	C375.645966,778.006042 376.182892,778.189636 376.719849,778.373169 
	C377.305695,776.945557 378.280396,775.551514 378.407288,774.084229 
	C378.856262,768.891296 377.391083,763.248779 383.170349,758.982849 
M405.737793,763.687561 
	C405.185699,762.111816 404.633606,760.536011 404.081512,758.960266 
	C406.371582,758.921997 408.718353,758.563782 410.932098,758.956055 
	C412.450714,759.225159 413.784363,760.537842 415.200714,761.384033 
	C413.730469,755.182495 408.340668,752.820190 403.476898,755.630127 
	C401.662811,756.678223 399.763580,759.388672 399.795807,761.309326 
	C399.827454,763.195435 401.938019,765.494629 403.733154,766.776855 
	C405.518158,768.051880 408.196014,768.008179 410.191620,769.082764 
	C411.389374,769.727661 412.890289,771.570984 412.697510,772.577393 
	C412.472382,773.752808 410.557678,775.402771 409.363495,775.413269 
	C407.419159,775.430359 405.416687,774.395935 403.530548,773.590271 
	C402.183685,773.015015 400.987274,772.087463 398.706635,770.696960 
	C401.053650,778.230286 407.632324,780.792908 413.288635,777.236694 
	C415.048706,776.130005 416.654205,773.369690 416.683655,771.342468 
	C416.709412,769.567993 414.760345,767.280640 413.069489,766.097473 
	C411.270966,764.838928 408.750366,764.612305 405.737793,763.687561 
M128.969269,778.546082 
	C132.782166,777.719360 136.120483,776.315002 136.054352,771.621643 
	C135.988129,766.923096 132.545456,765.717407 128.775070,764.864624 
	C127.331184,764.538086 125.773071,764.177185 124.602318,763.354736 
	C123.680756,762.707153 122.665314,761.231689 122.811600,760.299805 
	C122.954155,759.391602 124.552811,758.023010 125.451836,758.067749 
	C127.254364,758.157593 129.023224,759.051453 130.791656,759.655334 
	C132.088989,760.098389 133.363480,760.608276 135.305847,761.334106 
	C132.632217,754.702026 125.146042,752.758179 120.730125,756.621826 
	C117.568558,759.388000 117.959290,764.260071 121.720078,766.223816 
	C123.889923,767.356934 126.539543,767.607483 128.635696,768.832703 
	C130.057999,769.664124 130.894257,771.498047 131.992599,772.883667 
	C130.405594,773.815857 128.858871,775.389771 127.219795,775.492676 
	C125.699959,775.588135 124.088257,774.097778 122.504272,773.331970 
	C121.213997,772.708130 119.904854,772.123352 117.696785,771.101257 
	C119.587593,777.779724 123.550919,778.792114 128.969269,778.546082 
M215.935944,749.666748 
	C215.935944,747.529724 215.935944,745.392761 215.935944,741.750427 
	C214.069763,743.111633 212.211975,743.826233 212.199402,744.571960 
	C212.012863,755.655762 212.070602,766.743713 212.070602,777.866211 
	C217.849106,777.866211 222.967117,777.866211 228.374603,777.866211 
	C228.374603,776.933350 228.490280,775.487427 228.357819,775.464294 
	C224.312103,774.758667 220.241989,774.192871 215.935944,773.570679 
	C215.935944,765.904236 215.935944,758.262085 215.935944,749.666748 
M339.443237,781.490173 
	C339.443237,767.774048 339.443237,754.057983 339.443237,740.341858 
	C338.743744,740.321716 338.044281,740.301636 337.344788,740.281494 
	C337.155731,741.438293 336.824524,742.592590 336.803619,743.752441 
	C336.734650,747.580322 336.777893,751.410278 336.777863,755.239441 
	C336.777802,763.730225 336.759521,772.221069 336.792053,780.711731 
	C336.798981,782.525635 336.708374,784.809326 339.443237,781.490173 
M367.057220,756.508545 
	C367.057220,752.067078 367.057220,747.625549 367.057220,743.184082 
	C366.639099,742.872375 366.220947,742.560669 365.802826,742.248962 
	C364.937195,743.205811 363.336853,744.149292 363.319183,745.121521 
	C363.135620,755.221252 363.129456,765.327148 363.328491,775.426331 
	C363.348083,776.421326 365.058960,777.383118 365.984802,778.360291 
	C366.342285,778.021179 366.699738,777.682068 367.057220,777.342957 
	C367.057220,770.730591 367.057220,764.118225 367.057220,756.508545 
M185.779373,777.394165 
	C185.935776,779.623718 186.092178,781.853210 186.248596,784.082764 
	C189.348801,779.958496 188.952377,742.878906 185.779373,739.472107 
	C185.779373,752.445557 185.779373,764.432495 185.779373,777.394165 
M466.935974,769.650940 
	C467.034637,760.786926 468.231934,759.127441 474.789551,758.899353 
	C474.789551,757.655518 474.789551,756.410461 474.789551,755.095825 
	C470.863312,755.333130 467.201202,755.554443 463.269348,755.792114 
	C463.269348,762.761169 463.269348,770.187622 463.269348,777.614075 
	C463.660217,777.905090 464.051086,778.196106 464.441956,778.487122 
	C465.272400,777.512634 466.532288,776.652466 466.829437,775.536072 
	C467.242859,773.982910 466.935059,772.237854 466.935974,769.650940 
M451.779358,764.531128 
	C451.780975,768.330322 451.711426,772.132019 451.848480,775.926331 
	C451.873749,776.626160 452.735138,777.295898 453.210632,777.979492 
	C453.873047,777.488831 455.102264,777.009277 455.112091,776.505981 
	C455.241028,769.901672 455.242706,763.293091 455.115173,756.688721 
	C455.104645,756.142212 453.926575,755.618347 453.290955,755.083984 
	C452.789886,755.757751 451.921875,756.398010 451.856659,757.111572 
	C451.662018,759.241394 451.782166,761.400024 451.779358,764.531128 
M108.779373,762.567505 
	C108.779869,766.862854 108.674561,771.163025 108.868965,775.449585 
	C108.908463,776.320251 110.077881,777.139709 110.726418,777.982788 
	C111.223892,777.153748 112.125755,776.337097 112.151611,775.493591 
	C112.293259,770.872192 112.423302,766.231323 112.132462,761.623962 
	C111.992950,759.414001 110.917725,757.263123 110.266273,755.085449 
	C109.770638,757.253967 109.275002,759.422424 108.779373,762.567505 
z"/>
<path fill="#F1F2F4" opacity="1.000000" stroke="none" 
	d="
M533.531372,1.000010 
	C531.368835,3.285475 529.066528,6.815864 526.042664,7.614650 
	C518.102966,9.711973 509.854889,11.775702 501.719208,11.817521 
	C437.556946,12.147323 373.392212,11.991715 309.228271,12.037058 
	C306.947327,12.038670 304.666748,12.578070 301.587677,13.026526 
	C292.115295,10.626094 283.519196,11.089405 274.982330,13.851318 
	C273.157227,13.234407 271.333496,12.083854 269.506775,12.079093 
	C229.948532,11.975995 190.388840,12.156991 150.832260,11.880628 
	C141.972916,11.818731 132.884445,11.196538 124.935585,6.377655 
	C123.058159,5.239494 121.678627,3.280067 120.035034,1.349217 
	C257.687561,1.000000 395.375122,1.000000 533.531372,1.000010 
z"/>
<path fill="#35B0B6" opacity="1.000000" stroke="none" 
	d="
M400.976135,490.463867 
	C402.918152,488.152069 405.305084,486.085419 406.734589,483.491211 
	C424.607239,451.056915 428.772552,416.980927 418.602966,381.265137 
	C418.376282,380.468933 418.182556,379.662750 417.998016,378.855621 
	C417.964905,378.710907 418.052551,378.538574 418.171234,377.944824 
	C423.355682,376.089233 428.864197,374.395386 434.154114,372.179596 
	C470.499420,356.956024 495.286774,330.664001 508.863495,293.731384 
	C509.089630,293.116302 509.115784,292.427673 509.141479,291.397461 
	C509.047699,291.021545 509.018066,291.057159 509.018066,291.057159 
	C509.684631,292.048248 510.725281,292.957123 510.963654,294.042297 
	C519.293396,331.959442 498.360138,373.960876 463.079468,390.181641 
	C459.013031,392.051178 454.851013,393.712799 451.022491,395.347351 
	C451.022491,406.189667 452.348206,417.102020 450.771393,427.577484 
	C446.226959,457.768066 429.350464,479.525665 402.272858,493.438354 
	C401.784882,493.689117 401.049957,493.459167 400.217224,493.234802 
	C400.004211,493.016052 399.937073,493.023865 400.321136,492.878967 
	C400.805176,491.968292 400.905151,491.202515 400.991974,490.432373 
	C400.978821,490.428009 400.976135,490.463867 400.976135,490.463867 
z"/>
<path fill="#F5C113" opacity="1.000000" stroke="none" 
	d="
M509.062317,291.003448 
	C508.154968,290.223328 506.822571,289.650909 506.370331,288.671906 
	C489.056854,251.194855 460.249664,227.267838 420.787842,215.834991 
	C420.646149,215.793930 420.540070,215.629944 419.997223,215.158478 
	C432.897156,170.542877 424.898010,129.525848 396.291626,92.356255 
	C427.199280,100.698921 465.573059,140.908234 452.176086,196.643799 
	C460.043610,201.460709 468.357086,205.471436 475.414001,211.066925 
	C499.840607,230.434967 510.629608,256.127258 508.857697,287.174683 
	C508.800812,288.171051 508.727539,289.166504 508.839996,290.609772 
	C509.018066,291.057159 509.047699,291.021545 509.062317,291.003448 
z"/>
<path fill="#1A74B6" opacity="1.000000" stroke="none" 
	d="
M400.589874,490.285858 
	C400.976135,490.463867 400.978821,490.428009 400.720490,490.723511 
	C400.287140,491.687286 400.112122,492.355591 399.937073,493.023865 
	C399.937073,493.023865 400.004211,493.016052 400.005249,492.982483 
	C398.804626,493.527496 397.448090,493.908905 396.423645,494.713226 
	C362.359589,521.457031 319.090271,521.235840 285.288330,494.112366 
	C284.392761,493.393768 283.409454,492.784485 282.270142,491.986267 
	C271.644135,501.349945 259.757660,508.413910 245.956604,511.991455 
	C221.737411,518.269592 198.890427,515.129456 177.440689,502.160248 
	C176.446793,501.559326 175.400299,501.045349 174.193756,500.009094 
	C174.009186,499.527313 173.996902,499.133453 173.996902,499.133453 
	C210.505096,501.285950 242.550827,490.373077 269.999023,466.187683 
	C273.720642,462.908447 277.042328,459.175385 280.247559,455.955505 
	C288.863617,462.230438 296.775238,468.932617 305.545776,474.206482 
	C333.778870,491.183533 364.285889,496.611633 396.752563,490.549713 
	C397.890717,490.337189 399.052734,490.252258 400.589874,490.285858 
z"/>
<path fill="#644D9E" opacity="1.000000" stroke="none" 
	d="
M173.809662,498.848358 
	C173.996902,499.133453 174.009186,499.527313 174.002197,499.724030 
	C153.799683,493.271484 138.786392,480.181824 128.268936,462.034760 
	C116.774055,442.201202 113.815956,420.885376 118.954811,398.493561 
	C119.174072,397.538147 119.221481,396.543304 119.362526,395.462708 
	C79.711739,377.209229 61.150208,346.404510 64.206047,302.584625 
	C82.046326,340.455872 110.712975,365.627228 151.385406,377.466217 
	C138.727798,421.586700 145.447357,462.096191 173.809662,498.848358 
z"/>
<path fill="#9A4997" opacity="1.000000" stroke="none" 
	d="
M140.181641,223.044861 
	C113.808304,234.002457 93.211105,251.252975 78.724594,275.448364 
	C74.310211,282.821259 70.920868,290.807861 67.172966,298.291962 
	C62.127842,287.267090 64.350967,257.831543 76.881523,237.853531 
	C88.611557,219.151855 104.940498,206.611633 126.252678,199.907120 
	C121.682571,171.400146 128.401520,146.239807 147.854691,124.893463 
	C156.253006,115.677834 167.804565,107.960434 174.700714,107.193069 
	C152.377365,141.542038 146.371597,178.034058 157.587662,217.188416 
	C151.793945,219.136734 146.170868,221.027679 140.181641,223.044861 
z"/>
<path fill="#FA8029" opacity="1.000000" stroke="none" 
	d="
M184.678207,104.575691 
	C181.835266,105.152641 179.389450,105.599411 176.673767,106.095474 
	C199.837173,79.763443 250.872116,67.252853 291.803894,100.459030 
	C308.797424,84.595268 328.911285,75.802994 352.471588,76.155334 
	C369.153168,76.404808 383.708344,80.997696 397.236206,89.873466 
	C355.584747,89.705727 321.478394,104.604248 294.435303,135.866776 
	C262.896179,108.481712 226.629776,97.148392 184.678207,104.575691 
z"/>
<path fill="#34AFB5" opacity="1.000000" stroke="none" 
	d="
M527.415100,446.386749 
	C515.655457,459.687164 498.732666,464.261810 483.382172,458.511566 
	C468.412872,452.904114 458.229797,438.369263 458.050079,422.353577 
	C457.864502,405.820160 468.686615,390.128784 483.788269,385.034790 
	C500.298431,379.465668 517.943115,384.595276 528.168945,397.937012 
	C538.419617,411.311157 538.815613,430.048889 529.137634,444.111206 
	C528.666443,444.795837 528.138489,445.441406 527.415100,446.386749 
z"/>
<path fill="#F5C012" opacity="1.000000" stroke="none" 
	d="
M515.974670,207.132568 
	C500.614166,214.112411 483.967682,211.476227 472.030823,200.366348 
	C460.621674,189.747589 457.059479,173.055527 462.917786,157.664108 
	C468.201324,143.782959 482.793396,133.766983 498.303345,133.375595 
	C515.032898,132.953430 530.370789,144.034134 535.719727,160.406631 
	C540.937439,176.377518 535.020386,194.301193 521.361877,203.809052 
	C519.733459,204.942596 518.008118,205.936844 515.974670,207.132568 
z"/>
<path fill="#1873B5" opacity="1.000000" stroke="none" 
	d="
M322.120209,547.799683 
	C319.891388,568.374329 304.614349,582.915466 284.789856,583.775024 
	C266.243469,584.579224 249.217499,570.513611 245.533783,551.344482 
	C241.709854,531.445801 256.515137,510.900116 276.541992,506.992249 
	C300.398895,502.337006 324.221039,522.344055 322.120209,547.799683 
z"/>
<path fill="#634C9E" opacity="1.000000" stroke="none" 
	d="
M40.386940,399.496643 
	C56.700584,374.338135 90.624084,377.308655 104.700363,398.240601 
	C113.202477,410.883545 113.578285,428.875610 105.195450,441.090149 
	C95.968300,454.535004 79.786369,461.021912 64.234116,457.510590 
	C49.168926,454.109253 37.116837,440.981232 34.888100,425.679932 
	C33.535130,416.391144 35.539124,407.836334 40.386940,399.496643 
z"/>
<path fill="#9A4797" opacity="1.000000" stroke="none" 
	d="
M69.727402,209.526733 
	C49.952526,202.493744 39.701263,183.140076 45.005844,163.398605 
	C49.960232,144.960419 69.176910,132.813126 87.749237,136.379562 
	C108.123245,140.291977 121.274101,158.094940 118.932716,178.594131 
	C116.313606,201.524719 93.744453,215.892975 69.727402,209.526733 
z"/>
<path fill="#F97F28" opacity="1.000000" stroke="none" 
	d="
M274.673279,14.050142 
	C283.519196,11.089405 292.115295,10.626094 301.172791,13.197851 
	C313.657898,19.005436 322.544250,27.476192 325.603882,41.150417 
	C330.016083,60.869560 316.454529,81.962189 296.751221,85.712143 
	C275.191437,89.815437 255.292709,75.758575 251.881897,54.872341 
	C249.082565,37.730453 260.370697,18.768805 274.673279,14.050142 
z"/>
<path fill="#313131" opacity="1.000000" stroke="none" 
	d="
M83.460121,686.177795 
	C83.459435,691.956238 83.459435,697.259277 83.459435,702.781006 
	C79.128448,702.781006 75.212814,702.781006 71.036652,702.781006 
	C71.036652,689.916321 71.036652,677.194946 71.036652,664.233582 
	C74.933022,664.233582 78.717186,664.233582 82.895378,664.233582 
	C83.211754,665.304443 83.594475,666.599792 83.994583,667.954102 
	C93.463226,662.085754 97.651543,662.410706 104.831436,668.652466 
	C109.720474,666.953857 113.894669,664.599182 118.255913,664.177002 
	C127.278313,663.303650 133.364670,668.612549 133.940399,677.692322 
	C134.463577,685.943481 134.051117,694.253845 134.051117,702.770020 
	C129.901718,702.770020 125.968636,702.770020 121.540237,702.770020 
	C121.540237,696.744568 121.576012,690.779053 121.531189,684.814087 
	C121.475197,677.362854 119.784966,674.333130 115.808563,674.362183 
	C111.436821,674.394226 108.949509,678.241333 108.872276,685.285278 
	C108.810341,690.934631 108.859756,696.585205 108.859756,702.619507 
	C104.627914,702.619507 100.591995,702.619507 96.021194,702.619507 
	C96.021194,696.693420 96.031281,690.751099 96.014153,684.808716 
	C96.009827,683.310974 96.397957,681.555908 95.762192,680.372192 
	C94.618874,678.243591 93.035637,675.154602 91.268166,674.885681 
	C89.402809,674.601807 86.489578,676.709045 85.173988,678.575256 
	C83.865608,680.431213 83.973808,683.285767 83.460121,686.177795 
z"/>
<path fill="#333333" opacity="1.000000" stroke="none" 
	d="
M272.113770,687.284180 
	C270.532837,692.595459 269.044922,697.521362 267.476440,702.714111 
	C262.541412,702.714111 257.612091,702.714111 252.347061,702.714111 
	C248.125854,690.115845 243.869904,677.413879 239.472549,664.289856 
	C244.356018,664.289856 248.745895,664.289856 253.653595,664.289856 
	C256.015015,671.892151 258.453369,679.742004 261.298981,688.903137 
	C264.287750,679.932617 266.857635,672.219299 269.509033,664.261353 
	C272.774597,664.261353 276.049530,664.261353 279.719330,664.261353 
	C282.288544,671.860291 284.908905,679.610657 287.529297,687.361023 
	C287.859558,687.370361 288.189789,687.379700 288.520050,687.389038 
	C290.911591,679.745605 293.303131,672.102173 295.757538,664.257812 
	C300.460449,664.257812 305.035767,664.257812 310.045319,664.257812 
	C305.643646,677.152466 301.308014,689.853577 297.027191,702.394165 
	C296.518524,702.646790 296.242767,702.896667 295.956085,702.909851 
	C281.998993,703.554688 282.003632,703.550964 278.045288,690.310852 
	C277.055634,687.000610 276.024689,683.702698 274.691071,679.349182 
	C273.617981,682.610291 272.912415,684.754578 272.113770,687.284180 
z"/>
<path fill="#313131" opacity="1.000000" stroke="none" 
	d="
M160.230499,666.191772 
	C170.346863,661.910034 179.441971,664.205627 184.876068,672.122864 
	C190.257797,679.963806 189.519165,691.064331 183.151642,698.037598 
	C176.632233,705.177185 166.988922,706.028931 156.654541,699.909546 
	C156.654541,708.092773 156.654541,715.903137 156.654541,723.769836 
	C152.031158,723.769836 148.097961,723.769836 143.974518,723.769836 
	C143.974518,703.925049 143.974518,684.313782 143.974518,664.685608 
	C152.205490,662.677124 155.869415,663.518127 157.009918,668.033569 
	C158.018280,667.456360 158.947876,666.924194 160.230499,666.191772 
M173.779404,688.064880 
	C175.934341,679.872681 171.054642,673.139404 164.049408,674.647583 
	C159.581451,675.609436 157.177383,678.534912 156.730057,682.931213 
	C156.262817,687.523193 158.077454,691.173950 162.469711,692.903137 
	C167.204514,694.767334 170.812622,692.869812 173.779404,688.064880 
z"/>
<path fill="#303030" opacity="1.000000" stroke="none" 
	d="
M60.203239,693.171021 
	C60.214920,696.610657 60.214920,699.571045 60.214920,702.764526 
	C48.915005,702.764526 37.980877,702.764526 26.795074,702.764526 
	C26.795074,683.609009 26.795074,664.513672 26.795074,645.207520 
	C37.897247,645.207520 48.816624,645.207520 59.977352,645.207520 
	C59.977352,648.983276 59.977352,652.587708 59.977352,656.716187 
	C53.310055,656.716187 46.570675,656.716187 39.531136,656.716187 
	C39.531136,660.628540 39.531136,664.024719 39.531136,667.831848 
	C46.015644,667.831848 52.452869,667.831848 59.168648,667.831848 
	C59.168648,671.817749 59.168648,675.403992 59.168648,679.516724 
	C52.656342,679.516724 46.246937,679.516724 39.531120,679.516724 
	C39.531120,683.454895 39.531120,686.877563 39.531120,691.073914 
	C45.014103,691.073914 50.601318,690.971436 56.179722,691.147766 
	C57.531906,691.190491 58.855053,692.152466 60.203239,693.171021 
z"/>
<path fill="#323232" opacity="1.000000" stroke="none" 
	d="
M352.358795,689.015991 
	C352.928101,689.956177 353.425354,690.993469 353.164307,691.778687 
	C350.142456,700.867615 339.551758,705.950989 328.483276,703.726746 
	C315.823059,701.182617 309.311737,691.470276 312.031555,679.187195 
	C314.420990,668.396179 326.779144,661.602905 338.874176,664.431702 
	C349.812317,666.989929 355.168610,674.154541 354.463959,685.818298 
	C344.937469,685.818298 335.364441,685.818298 325.560425,685.818298 
	C325.475769,690.533936 327.544128,693.235474 331.427460,694.373169 
	C334.968842,695.410706 337.709229,694.021729 340.192627,691.234253 
	C341.337616,689.948975 343.600037,689.392273 345.453278,689.075500 
	C347.556793,688.716003 349.769348,688.994751 352.358795,689.015991 
M326.827118,675.765076 
	C326.412720,677.028748 325.998291,678.292480 325.550537,679.657837 
	C331.450073,679.657837 336.629913,679.657837 341.874847,679.657837 
	C339.871429,671.720276 333.928284,669.982056 326.827118,675.765076 
z"/>
<path fill="#333333" opacity="1.000000" stroke="none" 
	d="
M236.645142,691.355103 
	C231.511429,701.697266 221.376999,706.202576 210.264053,703.379578 
	C199.845703,700.733093 194.241623,693.610229 194.535645,683.388428 
	C194.889709,671.078857 205.525345,662.680908 219.049973,664.031799 
	C231.407455,665.266113 239.690552,675.753662 237.649307,687.613647 
	C237.452881,688.754883 237.083984,689.866455 236.645142,691.355103 
M209.316376,691.097168 
	C213.841171,694.943909 219.379059,695.159546 222.584808,691.613831 
	C225.890869,687.957153 225.714813,679.844238 222.254807,676.405212 
	C217.864197,672.041199 209.588364,673.809509 208.237122,679.847473 
	C207.495850,683.159851 208.620224,686.889771 209.316376,691.097168 
z"/>
<path fill="#373737" opacity="1.000000" stroke="none" 
	d="
M408.875305,664.071655 
	C414.793091,672.489319 420.519501,680.603882 426.945923,689.710449 
	C426.945923,676.227051 426.945923,663.893860 426.945923,650.981689 
	C429.074127,650.886475 430.775818,650.810364 432.748474,650.722107 
	C432.748474,669.695007 432.748474,688.273010 432.748474,708.146851 
	C422.700714,693.909912 413.218628,680.474548 402.883423,665.830383 
	C402.883423,679.555786 402.883423,691.989258 402.883423,704.715698 
	C400.475342,704.715698 398.750214,704.715698 396.971680,704.715698 
	C396.971680,685.861694 396.971680,667.101562 396.971680,647.225708 
	C401.274231,653.302856 404.979095,658.535767 408.875305,664.071655 
z"/>
<path fill="#373737" opacity="1.000000" stroke="none" 
	d="
M466.960693,699.925110 
	C470.579102,699.925110 473.706085,699.925110 477.039307,699.925110 
	C477.039307,701.735535 477.039307,703.165527 477.039307,704.809082 
	C466.439423,704.809082 456.010498,704.809082 445.231018,704.809082 
	C445.231018,686.905579 445.231018,669.021301 445.231018,650.923462 
	C455.697876,650.923462 466.148804,650.923462 476.927246,650.923462 
	C476.927246,652.487915 476.927246,654.037292 476.927246,656.041565 
	C468.296448,656.041565 459.717957,656.041565 450.943542,656.041565 
	C450.943542,662.423096 450.943542,668.372620 450.943542,674.812744 
	C459.290771,674.812744 467.707947,674.812744 476.483337,674.812744 
	C476.581390,676.853882 476.656952,678.426575 476.761017,680.592957 
	C468.032288,680.592957 459.632599,680.592957 450.994568,680.592957 
	C450.994568,687.242676 450.994568,693.319641 450.994568,699.925110 
	C456.235016,699.925110 461.352112,699.925110 466.960693,699.925110 
z"/>
<path fill="#373737" opacity="1.000000" stroke="none" 
	d="
M524.709412,658.758179 
	C520.199036,665.167847 515.907837,671.294556 511.368195,677.776001 
	C517.490173,686.535217 523.652649,695.352295 529.960571,704.377380 
	C525.665955,705.879883 522.888306,705.048706 520.504761,701.079285 
	C516.678955,694.707947 512.231445,688.709961 507.724915,682.080933 
	C503.280029,688.644104 498.983246,694.530273 495.209503,700.734619 
	C492.988220,704.386597 490.340149,705.861694 485.436951,704.578003 
	C491.658508,695.668030 497.748444,686.946472 504.087585,677.868103 
	C497.946075,669.093506 491.787537,660.294556 485.370544,651.126404 
	C489.755035,650.157043 492.724426,650.579529 495.148315,654.737000 
	C498.822144,661.038513 503.239807,666.906311 507.713257,673.507019 
	C512.019592,667.183838 516.337219,661.328247 520.102539,655.136658 
	C522.418823,651.327820 525.102478,649.715027 529.861877,651.223511 
	C528.174561,653.703796 526.551636,656.089539 524.709412,658.758179 
z"/>
<path fill="#2E2E2E" opacity="1.000000" stroke="none" 
	d="
M480.000000,635.879395 
	C509.124695,635.879395 537.749390,635.879395 566.744019,635.879395 
	C566.895630,637.188232 567.035156,638.392395 567.252014,640.264465 
	C565.302856,640.264465 563.702942,640.264404 562.102966,640.264404 
	C507.835266,640.264404 453.567535,640.274902 399.299866,640.230225 
	C396.878387,640.228271 392.938873,641.493164 394.811340,635.879395 
	C422.979218,635.879395 451.239594,635.879395 480.000000,635.879395 
z"/>
<path fill="#2E2E2E" opacity="1.000000" stroke="none" 
	d="
M523.000122,713.712891 
	C536.817932,713.713013 550.136169,713.774597 563.453125,713.665955 
	C566.412231,713.641846 567.981201,714.258850 566.792236,717.822754 
	C509.533722,717.822754 452.182861,717.822754 394.840881,717.822754 
	C394.270660,713.736694 394.270660,713.716736 399.144073,713.716125 
	C440.262726,713.710571 481.381409,713.712952 523.000122,713.712891 
z"/>
<path fill="#333333" opacity="1.000000" stroke="none" 
	d="
M378.551514,666.568481 
	C382.220001,665.262207 385.586365,664.210876 389.623413,662.950073 
	C389.623413,667.868408 389.623413,671.602356 389.623413,674.844177 
	C386.604187,675.022400 382.995361,674.359314 380.374298,675.670593 
	C378.320709,676.697998 377.237610,680.067810 376.214081,682.595642 
	C375.630066,684.038086 375.997101,685.878540 375.991455,687.539917 
	C375.974701,692.499695 375.985443,697.459656 375.985443,702.711853 
	C371.634491,702.711853 367.598694,702.711853 363.348145,702.711853 
	C363.348145,689.908142 363.348145,677.328430 363.348145,664.368774 
	C367.237122,664.368774 371.138184,664.368774 374.683228,664.368774 
	C377.663849,663.183289 373.729218,669.970581 378.551514,666.568481 
z"/>
<path fill="#373737" opacity="1.000000" stroke="none" 
	d="
M552.489868,689.993286 
	C552.476685,694.813599 552.468628,699.135376 552.440002,703.457031 
	C552.437927,703.775391 552.287720,704.092896 552.128845,704.713867 
	C550.475586,704.713867 548.748047,704.713867 546.707275,704.713867 
	C546.707275,688.548279 546.707275,672.460571 546.707275,655.986206 
	C542.300476,655.986206 538.197632,655.986206 533.808777,655.986206 
	C533.808777,654.024353 533.808777,652.451416 533.808777,650.586914 
	C544.340881,650.586914 554.716370,650.586914 565.413147,650.586914 
	C565.413147,652.285583 565.413147,653.842896 565.413147,655.856262 
	C561.257935,655.856262 557.165161,655.856262 552.489990,655.856262 
	C552.489990,667.363647 552.489990,678.429199 552.489868,689.993286 
z"/>
<path fill="#141414" opacity="1.000000" stroke="none" 
	d="
M80.231033,765.976685 
	C80.231033,758.037537 80.231033,750.593384 80.231033,742.727051 
	C84.454041,742.727051 88.256920,742.602234 92.048508,742.755920 
	C97.955238,742.995300 102.149536,746.561035 102.934975,751.766296 
	C103.701614,756.846924 101.046631,761.053345 95.594376,763.388733 
	C94.832741,763.714966 94.063499,764.023438 93.090012,764.426086 
	C96.432182,768.782532 99.741508,773.096191 103.050827,777.409851 
	C102.732330,777.849976 102.413826,778.290161 102.095322,778.730286 
	C100.290512,777.604675 98.138206,776.796265 96.757240,775.283691 
	C94.304199,772.596680 92.501785,769.317749 90.063675,766.614258 
	C88.763481,765.172424 86.702751,764.416504 84.004745,762.742737 
	C84.004745,768.785522 84.004745,773.229797 84.004745,777.670837 
	C80.230995,777.623169 80.230995,777.623169 80.231033,765.976685 
M85.784218,760.703491 
	C88.270775,760.605835 90.796089,760.749329 93.235352,760.357361 
	C97.557732,759.662781 99.500259,756.752380 99.182648,752.530762 
	C98.874039,748.429016 96.379517,746.273865 92.298157,746.105103 
	C89.683479,745.996948 87.060692,746.084778 83.644676,746.084778 
	C84.089333,751.262085 84.489586,755.922302 85.784218,760.703491 
z"/>
<path fill="#0D0D0D" opacity="1.000000" stroke="none" 
	d="
M309.511658,754.560852 
	C309.512695,749.942932 309.384460,745.771851 309.603485,741.619080 
	C309.659332,740.560242 310.816162,739.559448 311.467194,738.532043 
	C311.889618,738.733582 312.312042,738.935120 312.734467,739.136719 
	C312.734467,751.888672 312.734467,764.640625 312.734467,778.475342 
	C311.050598,777.480225 309.759216,776.716980 308.160461,775.772156 
	C302.236359,779.632446 296.924164,779.460022 292.793274,774.802612 
	C288.776581,770.273926 288.631866,763.427246 292.453888,758.745361 
	C296.534393,753.746826 301.927429,753.379333 309.179291,757.866089 
	C309.303955,756.795776 309.407654,755.905151 309.511658,754.560852 
M295.950378,760.422485 
	C292.370056,765.430664 292.416656,769.490356 296.092651,772.817566 
	C299.172638,775.605286 303.361359,775.666321 306.495941,772.969055 
	C309.702118,770.210388 310.316559,765.168030 307.871368,761.682373 
	C305.323578,758.050476 301.454315,757.458130 295.950378,760.422485 
z"/>
<path fill="#0B0B0B" opacity="1.000000" stroke="none" 
	d="
M445.041718,769.130737 
	C441.195618,778.917969 434.753174,780.954346 426.094025,775.378723 
	C423.630737,780.260132 428.090332,786.819946 423.702911,791.184448 
	C423.174988,791.075134 422.647095,790.965759 422.119202,790.856384 
	C422.119202,779.082886 422.119202,767.309387 422.119202,754.363525 
	C423.995514,755.646973 425.293701,756.534973 426.729492,757.517090 
	C430.261047,754.480713 434.698334,753.469055 439.250458,755.995178 
	C444.151550,758.714966 445.780945,763.296021 445.041718,769.130737 
M436.500244,774.290222 
	C437.660126,773.386963 439.084717,772.680664 439.930603,771.543823 
	C442.546417,768.028259 442.407684,764.315369 439.554779,761.053406 
	C436.866821,757.979980 433.388977,757.066956 429.718323,759.288635 
	C425.993134,761.543274 424.642731,765.082458 426.049164,769.164368 
	C427.603607,773.675903 430.974152,775.642944 436.500244,774.290222 
z"/>
<path fill="#0B0B0B" opacity="1.000000" stroke="none" 
	d="
M140.386032,770.522217 
	C139.133652,762.720764 141.572556,757.489502 147.157394,755.326172 
	C152.224838,753.363281 158.314545,754.981018 161.321579,759.630676 
	C162.767761,761.866821 163.259186,764.720398 164.394241,767.883057 
	C157.084625,767.883057 150.635864,767.883057 143.832947,767.883057 
	C144.669861,772.893860 147.963730,775.019348 151.888229,774.606018 
	C155.196198,774.257568 158.308334,772.049866 162.521164,770.226196 
	C160.601059,775.557983 157.562241,777.619080 153.391205,778.110535 
	C147.398132,778.816528 143.078003,776.374268 140.386032,770.522217 
M158.315979,761.718262 
	C155.962387,758.770874 152.903168,756.936951 149.305771,758.575806 
	C146.994080,759.629028 145.270035,761.972168 143.282593,763.737122 
	C143.610458,764.141357 143.938339,764.545654 144.266205,764.949890 
	C148.377060,764.949890 152.488129,764.925537 156.598679,764.960999 
	C158.422363,764.976746 160.127991,765.011108 158.315979,761.718262 
z"/>
<path fill="#0D0D0D" opacity="1.000000" stroke="none" 
	d="
M255.818237,767.059509 
	C249.316223,767.496948 242.866684,767.496948 235.943649,767.496948 
	C236.753189,772.854431 240.085266,774.947388 243.922882,774.594116 
	C247.296707,774.283630 250.495804,772.074524 254.682205,770.323181 
	C251.399582,777.154968 246.770493,779.386353 240.701492,777.995300 
	C235.425293,776.785950 231.518417,771.309204 231.876022,765.623596 
	C232.210114,760.312073 236.300018,755.659058 241.336990,754.860046 
	C247.561401,753.872681 253.107498,756.801941 255.036438,762.233643 
	C255.528885,763.620300 255.603897,765.155273 255.818237,767.059509 
M240.578064,758.865356 
	C238.899033,760.580811 237.219986,762.296265 234.929169,764.636719 
	C241.437271,764.636719 246.477478,764.636719 251.628357,764.636719 
	C249.281586,759.002686 247.022934,757.719177 240.578064,758.865356 
z"/>
<path fill="#0D0D0D" opacity="1.000000" stroke="none" 
	d="
M489.984863,778.263550 
	C481.950043,777.376831 477.397858,772.431396 477.884735,765.526611 
	C478.316833,759.398743 483.212616,754.810486 489.443024,754.694397 
	C496.801788,754.557312 501.199341,759.030273 501.832062,767.815552 
	C495.297302,767.815552 488.773773,767.815552 481.857452,767.815552 
	C482.991394,772.913452 486.245514,775.060486 490.213531,774.587769 
	C493.519623,774.193909 496.614777,772.029785 500.971588,770.143982 
	C498.482635,775.949524 495.042938,777.980164 489.984863,778.263550 
M490.422485,764.944336 
	C492.801910,764.944336 495.181366,764.944336 498.107666,764.944336 
	C496.167480,760.304932 493.492981,757.840698 489.196686,758.143372 
	C485.436676,758.408203 483.016663,760.680969 481.780273,764.944336 
	C484.673218,764.944336 487.089539,764.944336 490.422485,764.944336 
z"/>
<path fill="#0D0D0D" opacity="1.000000" stroke="none" 
	d="
M265.485962,756.345093 
	C270.620239,753.671082 275.077301,754.309875 278.968567,757.691589 
	C280.146729,756.684265 281.309235,755.690369 283.292084,753.994995 
	C283.292084,762.716248 283.292084,770.009399 283.292084,778.414612 
	C281.638367,777.526978 280.417908,776.871887 278.640106,775.917603 
	C271.947662,779.740723 266.470459,779.284485 262.549225,773.900024 
	C258.490051,768.326111 259.421448,762.196533 265.485962,756.345093 
M274.549316,774.348267 
	C275.638123,773.616577 276.959381,773.081238 277.773560,772.117615 
	C280.572937,768.804138 280.882477,765.102356 278.249084,761.625244 
	C275.833313,758.435486 272.599396,757.089722 268.630707,758.993958 
	C264.837982,760.813721 262.802216,765.002014 264.186646,768.983582 
	C265.746796,773.470459 269.012604,775.553711 274.549316,774.348267 
z"/>
<path fill="#0B0B0B" opacity="1.000000" stroke="none" 
	d="
M382.760681,759.124451 
	C377.391083,763.248779 378.856262,768.891296 378.407288,774.084229 
	C378.280396,775.551514 377.305695,776.945557 376.719849,778.373169 
	C376.182892,778.189636 375.645966,778.006042 375.109009,777.822510 
	C375.109009,770.384277 375.109009,762.945984 375.109009,754.633301 
	C376.873108,755.504578 378.211945,756.165833 379.550781,756.827087 
	C379.464386,756.518372 379.377960,756.209717 379.291565,755.901001 
	C382.864258,755.784668 386.705353,754.785400 389.943329,755.769897 
	C394.234375,757.074463 394.369324,761.477173 394.263428,765.464783 
	C394.174988,768.794678 394.420654,772.143677 394.142334,775.452515 
	C394.054596,776.495544 392.751221,777.436340 392.004211,778.423950 
	C391.587280,778.142395 391.170349,777.860901 390.753418,777.579346 
	C390.753418,773.254639 390.842346,768.927734 390.731171,764.605835 
	C390.588531,759.062805 388.618225,757.655090 382.760681,759.124451 
z"/>
<path fill="#141414" opacity="1.000000" stroke="none" 
	d="
M406.141418,763.811340 
	C408.750366,764.612305 411.270966,764.838928 413.069489,766.097473 
	C414.760345,767.280640 416.709412,769.567993 416.683655,771.342468 
	C416.654205,773.369690 415.048706,776.130005 413.288635,777.236694 
	C407.632324,780.792908 401.053650,778.230286 398.706635,770.696960 
	C400.987274,772.087463 402.183685,773.015015 403.530548,773.590271 
	C405.416687,774.395935 407.419159,775.430359 409.363495,775.413269 
	C410.557678,775.402771 412.472382,773.752808 412.697510,772.577393 
	C412.890289,771.570984 411.389374,769.727661 410.191620,769.082764 
	C408.196014,768.008179 405.518158,768.051880 403.733154,766.776855 
	C401.938019,765.494629 399.827454,763.195435 399.795807,761.309326 
	C399.763580,759.388672 401.662811,756.678223 403.476898,755.630127 
	C408.340668,752.820190 413.730469,755.182495 415.200714,761.384033 
	C413.784363,760.537842 412.450714,759.225159 410.932098,758.956055 
	C408.718353,758.563782 406.371582,758.921997 404.081512,758.960266 
	C404.633606,760.536011 405.185699,762.111816 406.141418,763.811340 
z"/>
<path fill="#141414" opacity="1.000000" stroke="none" 
	d="
M128.578369,778.627136 
	C123.550919,778.792114 119.587593,777.779724 117.696785,771.101257 
	C119.904854,772.123352 121.213997,772.708130 122.504272,773.331970 
	C124.088257,774.097778 125.699959,775.588135 127.219795,775.492676 
	C128.858871,775.389771 130.405594,773.815857 131.992599,772.883667 
	C130.894257,771.498047 130.057999,769.664124 128.635696,768.832703 
	C126.539543,767.607483 123.889923,767.356934 121.720078,766.223816 
	C117.959290,764.260071 117.568558,759.388000 120.730125,756.621826 
	C125.146042,752.758179 132.632217,754.702026 135.305847,761.334106 
	C133.363480,760.608276 132.088989,760.098389 130.791656,759.655334 
	C129.023224,759.051453 127.254364,758.157593 125.451836,758.067749 
	C124.552811,758.023010 122.954155,759.391602 122.811600,760.299805 
	C122.665314,761.231689 123.680756,762.707153 124.602318,763.354736 
	C125.773071,764.177185 127.331184,764.538086 128.775070,764.864624 
	C132.545456,765.717407 135.988129,766.923096 136.054352,771.621643 
	C136.120483,776.315002 132.782166,777.719360 128.578369,778.627136 
z"/>
<path fill="#1D1D1D" opacity="1.000000" stroke="none" 
	d="
M215.935944,750.143311 
	C215.935944,758.262085 215.935944,765.904236 215.935944,773.570679 
	C220.241989,774.192871 224.312103,774.758667 228.357819,775.464294 
	C228.490280,775.487427 228.374603,776.933350 228.374603,777.866211 
	C222.967117,777.866211 217.849106,777.866211 212.070602,777.866211 
	C212.070602,766.743713 212.012863,755.655762 212.199402,744.571960 
	C212.211975,743.826233 214.069763,743.111633 215.935944,741.750427 
	C215.935944,745.392761 215.935944,747.529724 215.935944,750.143311 
z"/>
<path fill="#020202" opacity="1.000000" stroke="none" 
	d="
M339.427032,781.889771 
	C336.708374,784.809326 336.798981,782.525635 336.792053,780.711731 
	C336.759521,772.221069 336.777802,763.730225 336.777863,755.239441 
	C336.777893,751.410278 336.734650,747.580322 336.803619,743.752441 
	C336.824524,742.592590 337.155731,741.438293 337.344788,740.281494 
	C338.044281,740.301636 338.743744,740.321716 339.443237,740.341858 
	C339.443237,754.057983 339.443237,767.774048 339.427032,781.889771 
z"/>
<path fill="#1D1D1D" opacity="1.000000" stroke="none" 
	d="
M367.057220,757.007202 
	C367.057220,764.118225 367.057220,770.730591 367.057220,777.342957 
	C366.699738,777.682068 366.342285,778.021179 365.984802,778.360291 
	C365.058960,777.383118 363.348083,776.421326 363.328491,775.426331 
	C363.129456,765.327148 363.135620,755.221252 363.319183,745.121521 
	C363.336853,744.149292 364.937195,743.205811 365.802826,742.248962 
	C366.220947,742.560669 366.639099,742.872375 367.057220,743.184082 
	C367.057220,747.625549 367.057220,752.067078 367.057220,757.007202 
z"/>
<path fill="#020202" opacity="1.000000" stroke="none" 
	d="
M185.779373,776.906738 
	C185.779373,764.432495 185.779373,752.445557 185.779373,739.472107 
	C188.952377,742.878906 189.348801,779.958496 186.248596,784.082764 
	C186.092178,781.853210 185.935776,779.623718 185.779373,776.906738 
z"/>
<path fill="#1D1D1D" opacity="1.000000" stroke="none" 
	d="
M466.935974,770.112915 
	C466.935059,772.237854 467.242859,773.982910 466.829437,775.536072 
	C466.532288,776.652466 465.272400,777.512634 464.441956,778.487122 
	C464.051086,778.196106 463.660217,777.905090 463.269348,777.614075 
	C463.269348,770.187622 463.269348,762.761169 463.269348,755.792114 
	C467.201202,755.554443 470.863312,755.333130 474.789551,755.095825 
	C474.789551,756.410461 474.789551,757.655518 474.789551,758.899353 
	C468.231934,759.127441 467.034637,760.786926 466.935974,770.112915 
z"/>
<path fill="#020202" opacity="1.000000" stroke="none" 
	d="
M451.779358,764.039246 
	C451.782166,761.400024 451.662018,759.241394 451.856659,757.111572 
	C451.921875,756.398010 452.789886,755.757751 453.290955,755.083984 
	C453.926575,755.618347 455.104645,756.142212 455.115173,756.688721 
	C455.242706,763.293091 455.241028,769.901672 455.112091,776.505981 
	C455.102264,777.009277 453.873047,777.488831 453.210632,777.979492 
	C452.735138,777.295898 451.873749,776.626160 451.848480,775.926331 
	C451.711426,772.132019 451.780975,768.330322 451.779358,764.039246 
z"/>
<path fill="#020202" opacity="1.000000" stroke="none" 
	d="
M108.779373,762.079224 
	C109.275002,759.422424 109.770638,757.253967 110.266273,755.085449 
	C110.917725,757.263123 111.992950,759.414001 112.132462,761.623962 
	C112.423302,766.231323 112.293259,770.872192 112.151611,775.493591 
	C112.125755,776.337097 111.223892,777.153748 110.726410,777.982788 
	C110.077881,777.139709 108.908463,776.320251 108.868965,775.449585 
	C108.674561,771.163025 108.779869,766.862854 108.779373,762.079224 
z"/>
<path fill="#FEFEFE" opacity="1.000000" stroke="none" 
	d="
M400.321136,492.878967 
	C400.112122,492.355591 400.287140,491.687286 400.733643,490.727905 
	C400.905151,491.202515 400.805176,491.968292 400.321136,492.878967 
z"/>
<path fill="#F7F7F7" opacity="1.000000" stroke="none" 
	d="
M173.593262,688.392456 
	C170.812622,692.869812 167.204514,694.767334 162.469711,692.903137 
	C158.077454,691.173950 156.262817,687.523193 156.730057,682.931213 
	C157.177383,678.534912 159.581451,675.609436 164.049408,674.647583 
	C171.054642,673.139404 175.934341,679.872681 173.593262,688.392456 
z"/>
<path fill="#F1F2F4" opacity="1.000000" stroke="none" 
	d="
M327.056030,675.432983 
	C333.928284,669.982056 339.871429,671.720276 341.874847,679.657837 
	C336.629913,679.657837 331.450073,679.657837 325.550537,679.657837 
	C325.998291,678.292480 326.412720,677.028748 327.056030,675.432983 
z"/>
<path fill="#F7F7F7" opacity="1.000000" stroke="none" 
	d="
M209.109863,690.764282 
	C208.620224,686.889771 207.495850,683.159851 208.237122,679.847473 
	C209.588364,673.809509 217.864197,672.041199 222.254807,676.405212 
	C225.714813,679.844238 225.890869,687.957153 222.584808,691.613831 
	C219.379059,695.159546 213.841171,694.943909 209.109863,690.764282 
z"/>
<path fill="#F7F7F7" opacity="1.000000" stroke="none" 
	d="
M85.337021,760.643005 
	C84.489586,755.922302 84.089333,751.262085 83.644676,746.084778 
	C87.060692,746.084778 89.683479,745.996948 92.298157,746.105103 
	C96.379517,746.273865 98.874039,748.429016 99.182648,752.530762 
	C99.500259,756.752380 97.557732,759.662781 93.235352,760.357361 
	C90.796089,760.749329 88.270775,760.605835 85.337021,760.643005 
z"/>
<path fill="#F7F7F7" opacity="1.000000" stroke="none" 
	d="
M296.246643,760.185303 
	C301.454315,757.458130 305.323578,758.050476 307.871368,761.682373 
	C310.316559,765.168030 309.702118,770.210388 306.495941,772.969055 
	C303.361359,775.666321 299.172638,775.605286 296.092651,772.817566 
	C292.416656,769.490356 292.370056,765.430664 296.246643,760.185303 
z"/>
<path fill="#F7F7F7" opacity="1.000000" stroke="none" 
	d="
M436.157257,774.473145 
	C430.974152,775.642944 427.603607,773.675903 426.049164,769.164368 
	C424.642731,765.082458 425.993134,761.543274 429.718323,759.288635 
	C433.388977,757.066956 436.866821,757.979980 439.554779,761.053406 
	C442.407684,764.315369 442.546417,768.028259 439.930603,771.543823 
	C439.084717,772.680664 437.660126,773.386963 436.157257,774.473145 
z"/>
<path fill="#F1F2F4" opacity="1.000000" stroke="none" 
	d="
M158.582504,762.048340 
	C160.127991,765.011108 158.422363,764.976746 156.598679,764.960999 
	C152.488129,764.925537 148.377060,764.949890 144.266205,764.949890 
	C143.938339,764.545654 143.610458,764.141357 143.282593,763.737122 
	C145.270035,761.972168 146.994080,759.629028 149.305771,758.575806 
	C152.903168,756.936951 155.962387,758.770874 158.582504,762.048340 
z"/>
<path fill="#F1F2F4" opacity="1.000000" stroke="none" 
	d="
M240.925079,758.690979 
	C247.022934,757.719177 249.281586,759.002686 251.628357,764.636719 
	C246.477478,764.636719 241.437271,764.636719 234.929169,764.636719 
	C237.219986,762.296265 238.899033,760.580811 240.925079,758.690979 
z"/>
<path fill="#F1F2F4" opacity="1.000000" stroke="none" 
	d="
M489.964172,764.944336 
	C487.089539,764.944336 484.673218,764.944336 481.780273,764.944336 
	C483.016663,760.680969 485.436676,758.408203 489.196686,758.143372 
	C493.492981,757.840698 496.167480,760.304932 498.107666,764.944336 
	C495.181366,764.944336 492.801910,764.944336 489.964172,764.944336 
z"/>
<path fill="#F7F7F7" opacity="1.000000" stroke="none" 
	d="
M274.207642,774.536011 
	C269.012604,775.553711 265.746796,773.470459 264.186646,768.983582 
	C262.802216,765.002014 264.837982,760.813721 268.630707,758.993958 
	C272.599396,757.089722 275.833313,758.435486 278.249084,761.625244 
	C280.882477,765.102356 280.572937,768.804138 277.773560,772.117615 
	C276.959381,773.081238 275.638123,773.616577 274.207642,774.536011 
z"/>
</svg>